<svg width="21" height="20" viewBox="0 0 21 20" fill="none" xmlns="http://www.w3.org/2000/svg">
<path d="M16.0697 5.66401L19.7197 9.32401C20.4997 10.104 20.4997 11.374 19.7197 12.154L16.0597 15.814C15.2797 16.594 14.0097 16.594 13.2297 15.814L9.56969 12.164C8.78969 11.384 8.78969 10.114 9.56969 9.33401L13.2397 5.65401C14.0297 4.87401 15.2897 4.87401 16.0697 5.66401ZM17.5997 10.024L15.3497 7.77401C14.9597 7.38401 14.3297 7.38401 13.9297 7.77401L11.6897 10.014C11.2997 10.404 11.2997 11.034 11.6897 11.424L13.9397 13.674C14.3297 14.064 14.9597 14.064 15.3597 13.674L17.5997 11.444C17.9897 11.054 17.9897 10.414 17.5997 10.024ZM2.63969 4.47401C3.47297 3.63582 4.46402 2.97098 5.55562 2.51786C6.64723 2.06474 7.81777 1.83232 8.99969 1.83401V1.00401C8.99969 0.114012 10.0797 -0.335988 10.7097 0.294012L12.5297 2.12401C12.6224 2.21653 12.6959 2.32641 12.7461 2.44739C12.7963 2.56836 12.8221 2.69804 12.8221 2.82901C12.8221 2.95998 12.7963 3.08966 12.7461 3.21064C12.6959 3.33161 12.6224 3.4415 12.5297 3.53401L10.6997 5.36401C10.0797 5.99401 8.99969 5.55401 8.99969 4.66401V3.83401C6.97969 3.83401 4.96969 4.69401 3.54969 6.44401C1.49969 8.96401 1.49969 12.714 3.54969 15.234C4.45426 16.3558 5.68366 17.1704 7.06934 17.566C8.45503 17.9617 9.92917 17.9191 11.2897 17.444C11.467 17.388 11.6565 17.3827 11.8368 17.4286C12.017 17.4745 12.1808 17.5699 12.3097 17.704C12.8097 18.204 12.6497 19.094 11.9697 19.324C10.3724 19.8884 8.64768 19.9878 6.99609 19.6108C5.34449 19.2337 3.83383 18.3957 2.63969 17.194C1.80276 16.3598 1.13872 15.3685 0.685631 14.2772C0.23254 13.1858 -0.00069046 12.0157 -0.00069046 10.834C-0.00069046 9.65232 0.23254 8.48224 0.685631 7.39086C1.13872 6.29948 1.80276 5.30825 2.63969 4.47401Z" fill="white"/>
</svg>
