<svg width="21" height="20" viewBox="0 0 21 20" fill="none" xmlns="http://www.w3.org/2000/svg">
<path d="M4.235 5.66401L0.585 9.32401C-0.195 10.104 -0.195 11.374 0.585 12.154L4.245 15.814C5.025 16.594 6.295 16.594 7.075 15.814L10.735 12.164C11.515 11.384 11.515 10.114 10.735 9.33401L7.065 5.65401C6.275 4.87401 5.015 4.87401 4.235 5.66401ZM2.705 10.024L4.955 7.77401C5.345 7.38401 5.975 7.38401 6.375 7.77401L8.615 10.014C9.005 10.404 9.005 11.034 8.615 11.424L6.365 13.674C5.975 14.064 5.345 14.064 4.945 13.674L2.705 11.444C2.315 11.054 2.315 10.414 2.705 10.024ZM17.665 4.47401C16.8317 3.63582 15.8407 2.97098 14.7491 2.51786C13.6575 2.06474 12.4869 1.83232 11.305 1.83401V1.00401C11.305 0.114012 10.225 -0.335988 9.595 0.294012L7.775 2.12401C7.6823 2.21653 7.60875 2.32641 7.55857 2.44739C7.50839 2.56836 7.48256 2.69804 7.48256 2.82901C7.48256 2.95998 7.50839 3.08966 7.55857 3.21064C7.60875 3.33161 7.6823 3.4415 7.775 3.53401L9.605 5.36401C10.225 5.99401 11.305 5.55401 11.305 4.66401V3.83401C13.325 3.83401 15.335 4.69401 16.755 6.44401C18.805 8.96401 18.805 12.714 16.755 15.234C15.8504 16.3558 14.621 17.1704 13.2353 17.566C11.8497 17.9617 10.3755 17.9191 9.015 17.444C8.83764 17.388 8.64816 17.3827 8.46794 17.4286C8.28771 17.4745 8.1239 17.5699 7.995 17.704C7.495 18.204 7.655 19.094 8.335 19.324C9.93232 19.8884 11.657 19.9878 13.3086 19.6108C14.9602 19.2337 16.4709 18.3957 17.665 17.194C18.5019 16.3598 19.166 15.3685 19.6191 14.2772C20.0721 13.1858 20.3054 12.0157 20.3054 10.834C20.3054 9.65232 20.0721 8.48224 19.6191 7.39086C19.166 6.29948 18.5019 5.30825 17.665 4.47401Z" fill="white"/>
</svg>
